ffmpeg started on 2026-01-13 at 11:23:53
Report written to "D:\Convert\FFMetrics\reports\ssim_report-6.txt"
Log level: 32
Command line:
ffmpeg -hide_banner -nostdin -r 24000/1001 -i "F:\\Convert\\files\\[DC] Make Heroine ga Oosugiru - 07_Telegram_HEVC(76).mkv" -r 24000/1001 -i "F:\\Convert\\files\\[DC] Make Heroine ga Oosugiru - 07_Telegram.mp4" -lavfi "[0:v]settb=AVTB,setpts=PTS-STARTPTS,format=pix_fmts=yuv420p10le,fps=24000/1001,scale=1920:1080:flags=lanczos:param0=3:out_range=limited:out_color_matrix=bt709:out_chroma_loc=left,setsar=1/1,setdar=(1920/1080)*(1/1),colorspace=format=yuv420p10:range=tv:primaries=bt709:trc=bt709:space=bt709:fast=0[main];[1:v]settb=AVTB,setpts=PTS-STARTPTS,format=pix_fmts=yuv420p,fps=24000/1001,scale=1920:1080:flags=lanczos:param0=3:out_range=limited:out_color_matrix=bt709:out_chroma_loc=left,setsar=1.000,setdar=1.778,colorspace=format=yuv420p:range=tv:primaries=bt709:trc=bt709:space=bt709:fast=0[ref];[main][ref]ssim=eof_action=endall:stats_file='D\\:/Convert/FFMetrics/logs/ssim_logfile-6.txt'" -f null -
Input #0, matroska,webm, from 'F:\Convert\files\[DC] Make Heroine ga Oosugiru - 07_Telegram_HEVC(76).mkv':
  Metadata:
    COMPATIBLE_BRANDS: isomiso2avc1mp41
    MAJOR_BRAND     : isom
    MINOR_VERSION   : 512
    ENCODER         : Lavf61.7.100
  Duration: 00:24:06.79, start: -0.021000, bitrate: 922 kb/s
  Stream #0:0: Video: hevc (Main 10), yuv420p10le(tv, bt709, progressive), 1920x1080 [SAR 1:1 DAR 16:9], 23.98 fps, 23.98 tbr, 1k tbn (default)
      Metadata:
        HANDLER_NAME    : VideoHandler
        VENDOR_ID       : [0][0][0][0]
        ENCODER         : Lavc61.19.100 libx265
        BPS             : 725374
        DURATION        : 00:24:06.569708333
        NUMBER_OF_FRAMES: 34683
        NUMBER_OF_BYTES : 131163010
        _STATISTICS_WRITING_APP: mkvpropedit v94.0 ('Initiate') 64-bit
        _STATISTICS_WRITING_DATE_UTC: 2026-01-11 15:09:49
        _STATISTICS_TAGS: BPS DURATION NUMBER_OF_FRAMES NUMBER_OF_BYTES
  Stream #0:1: Audio: aac (LC), 48000 Hz, stereo, fltp (default)
      Metadata:
        HANDLER_NAME    : SoundHandler
        VENDOR_ID       : [0][0][0][0]
        ENCODER         : Lavc61.19.100 aac
        BPS             : 193194
        DURATION        : 00:24:06.784000000
        NUMBER_OF_FRAMES: 67819
        NUMBER_OF_BYTES : 34938755
        _STATISTICS_WRITING_APP: mkvpropedit v94.0 ('Initiate') 64-bit
        _STATISTICS_WRITING_DATE_UTC: 2026-01-11 15:09:49
        _STATISTICS_TAGS: BPS DURATION NUMBER_OF_FRAMES NUMBER_OF_BYTES
Input #1, mov,mp4,m4a,3gp,3g2,mj2, from 'F:\Convert\files\[DC] Make Heroine ga Oosugiru - 07_Telegram.mp4':
  Metadata:
    major_brand     : isom
    minor_version   : 512
    compatible_brands: isomiso2avc1mp41
    encoder         : Lavf60.16.100
  Duration: 00:24:06.74, start: 0.000000, bitrate: 3764 kb/s
  Stream #1:0[0x1](und): Video: h264 (High) (avc1 / 0x31637661), yuv420p(tv, bt709, progressive), 1920x1080 [SAR 1:1 DAR 16:9], 3616 kb/s, 23.98 fps, 23.98 tbr, 24k tbn (default)
      Metadata:
        handler_name    : VideoHandler
        vendor_id       : [0][0][0][0]
        encoder         : Lavc60.31.102 h264_qsv
  Stream #1:1[0x2](und): Audio: aac (HE-AACv2) (mp4a / 0x6134706D), 48000 Hz, stereo, fltp, 144 kb/s (default)
      Metadata:
        handler_name    : SoundHandler
        vendor_id       : [0][0][0][0]
Stream mapping:
  Stream #0:0 (hevc) -> settb:default
  Stream #1:0 (h264) -> settb:default
  ssim:default -> Stream #0:0 (wrapped_avframe)
  Stream #0:1 -> #0:1 (aac (native) -> pcm_s16le (native))
Output #0, null, to 'pipe:':
  Metadata:
    COMPATIBLE_BRANDS: isomiso2avc1mp41
    MAJOR_BRAND     : isom
    MINOR_VERSION   : 512
    encoder         : Lavf61.7.100
  Stream #0:0: Video: wrapped_avframe, yuv420p10le(tv, bt709, progressive), 1920x1080 [SAR 1:1 DAR 16:9], q=2-31, 200 kb/s, 23.98 fps, 23.98 tbn
      Metadata:
        encoder         : Lavc61.19.100 wrapped_avframe
  Stream #0:1: Audio: pcm_s16le, 48000 Hz, stereo, s16, 1536 kb/s (default)
      Metadata:
        HANDLER_NAME    : SoundHandler
        VENDOR_ID       : [0][0][0][0]
        _STATISTICS_TAGS: BPS DURATION NUMBER_OF_FRAMES NUMBER_OF_BYTES
        BPS             : 193194
        DURATION        : 00:24:06.784000000
        NUMBER_OF_FRAMES: 67819
        NUMBER_OF_BYTES : 34938755
        _STATISTICS_WRITING_APP: mkvpropedit v94.0 ('Initiate') 64-bit
        _STATISTICS_WRITING_DATE_UTC: 2026-01-11 15:09:49
        encoder         : Lavc61.19.100 pcm_s16le
frame=  127 fps=0.0 q=-0.0 size=N/A time=00:00:05.29 bitrate=N/A speed=10.3x    frame=  310 fps=298 q=-0.0 size=N/A time=00:00:12.92 bitrate=N/A speed=12.4x    frame=  450 fps=290 q=-0.0 size=N/A time=00:00:18.76 bitrate=N/A speed=12.1x    frame=  632 fps=306 q=-0.0 size=N/A time=00:00:26.35 bitrate=N/A speed=12.8x    frame=  819 fps=316 q=-0.0 size=N/A time=00:00:34.15 bitrate=N/A speed=13.2x    frame=  962 fps=310 q=-0.0 size=N/A time=00:00:40.12 bitrate=N/A speed=12.9x    frame= 1114 fps=309 q=-0.0 size=N/A time=00:00:46.46 bitrate=N/A speed=12.9x    frame= 1273 fps=308 q=-0.0 size=N/A time=00:00:53.09 bitrate=N/A speed=12.8x    frame= 1425 fps=307 q=-0.0 size=N/A time=00:00:59.43 bitrate=N/A speed=12.8x    frame= 1565 fps=303 q=-0.0 size=N/A time=00:01:05.27 bitrate=N/A speed=12.6x    frame= 1718 fps=301 q=-0.0 size=N/A time=00:01:11.65 bitrate=N/A speed=12.6x    frame= 1880 fps=303 q=-0.0 size=N/A time=00:01:18.41 bitrate=N/A speed=12.6x    frame= 2040 fps=303 q=-0.0 size=N/A time=00:01:25.08 bitrate=N/A speed=12.6x    frame= 2150 fps=296 q=-0.0 size=N/A time=00:01:29.67 bitrate=N/A speed=12.4x    frame= 2305 fps=296 q=-0.0 size=N/A time=00:01:36.13 bitrate=N/A speed=12.4x    frame= 2419 fps=292 q=-0.0 size=N/A time=00:01:40.89 bitrate=N/A speed=12.2x    frame= 2544 fps=289 q=-0.0 size=N/A time=00:01:46.10 bitrate=N/A speed=12.1x    frame= 2702 fps=290 q=-0.0 size=N/A time=00:01:52.69 bitrate=N/A speed=12.1x    frame= 2876 fps=292 q=-0.0 size=N/A time=00:01:59.95 bitrate=N/A speed=12.2x    frame= 3046 fps=294 q=-0.0 size=N/A time=00:02:07.04 bitrate=N/A speed=12.3x    frame= 3234 fps=298 q=-0.0 size=N/A time=00:02:14.88 bitrate=N/A speed=12.4x    frame= 3408 fps=299 q=-0.0 size=N/A time=00:02:22.14 bitrate=N/A speed=12.5x    frame= 3592 fps=302 q=-0.0 size=N/A time=00:02:29.81 bitrate=N/A speed=12.6x    frame= 3770 fps=304 q=-0.0 size=N/A time=00:02:37.24 bitrate=N/A speed=12.7x    frame= 3950 fps=306 q=-0.0 size=N/A time=00:02:44.74 bitrate=N/A speed=12.7x    frame= 4135 fps=307 q=-0.0 size=N/A time=00:02:52.46 bitrate=N/A speed=12.8x    frame= 4311 fps=309 q=-0.0 size=N/A time=00:02:59.80 bitrate=N/A speed=12.9x    frame= 4488 fps=310 q=-0.0 size=N/A time=00:03:07.18 bitrate=N/A speed=12.9x    frame= 4669 fps=312 q=-0.0 size=N/A time=00:03:14.73 bitrate=N/A speed=  13x    frame= 4827 fps=311 q=-0.0 size=N/A time=00:03:21.32 bitrate=N/A speed=  13x    frame= 5007 fps=312 q=-0.0 size=N/A time=00:03:28.83 bitrate=N/A speed=  13x    frame= 5177 fps=313 q=-0.0 size=N/A time=00:03:35.92 bitrate=N/A speed=13.1x    frame= 5360 fps=314 q=-0.0 size=N/A time=00:03:43.55 bitrate=N/A speed=13.1x    frame= 5545 fps=316 q=-0.0 size=N/A time=00:03:51.27 bitrate=N/A speed=13.2x    frame= 5729 fps=317 q=-0.0 size=N/A time=00:03:58.94 bitrate=N/A speed=13.2x    frame= 5897 fps=317 q=-0.0 size=N/A time=00:04:05.95 bitrate=N/A speed=13.2x    frame= 6082 fps=318 q=-0.0 size=N/A time=00:04:13.67 bitrate=N/A speed=13.3x    frame= 6261 fps=319 q=-0.0 size=N/A time=00:04:21.13 bitrate=N/A speed=13.3x    frame= 6444 fps=320 q=-0.0 size=N/A time=00:04:28.76 bitrate=N/A speed=13.3x    frame= 6625 fps=321 q=-0.0 size=N/A time=00:04:36.31 bitrate=N/A speed=13.4x    frame= 6809 fps=321 q=-0.0 size=N/A time=00:04:43.99 bitrate=N/A speed=13.4x    frame= 6997 fps=322 q=-0.0 size=N/A time=00:04:51.83 bitrate=N/A speed=13.4x    frame= 7154 fps=322 q=-0.0 size=N/A time=00:04:58.38 bitrate=N/A speed=13.4x    frame= 7308 fps=321 q=-0.0 size=N/A time=00:05:04.80 bitrate=N/A speed=13.4x    frame= 7488 fps=322 q=-0.0 size=N/A time=00:05:12.31 bitrate=N/A speed=13.4x    frame= 7668 fps=322 q=-0.0 size=N/A time=00:05:19.81 bitrate=N/A speed=13.4x    frame= 7835 fps=322 q=-0.0 size=N/A time=00:05:26.78 bitrate=N/A speed=13.4x    frame= 8017 fps=323 q=-0.0 size=N/A time=00:05:34.37 bitrate=N/A speed=13.5x    frame= 8184 fps=323 q=-0.0 size=N/A time=00:05:41.34 bitrate=N/A speed=13.5x    frame= 8364 fps=323 q=-0.0 size=N/A time=00:05:48.84 bitrate=N/A speed=13.5x    frame= 8538 fps=324 q=-0.0 size=N/A time=00:05:56.10 bitrate=N/A speed=13.5x    frame= 8720 fps=324 q=-0.0 size=N/A time=00:06:03.69 bitrate=N/A speed=13.5x    frame= 8898 fps=325 q=-0.0 size=N/A time=00:06:11.12 bitrate=N/A speed=13.5x    frame= 9084 fps=325 q=-0.0 size=N/A time=00:06:18.87 bitrate=N/A speed=13.6x    frame= 9261 fps=326 q=-0.0 size=N/A time=00:06:26.26 bitrate=N/A speed=13.6x    frame= 9444 fps=326 q=-0.0 size=N/A time=00:06:33.89 bitrate=N/A speed=13.6x    frame= 9596 fps=326 q=-0.0 size=N/A time=00:06:40.23 bitrate=N/A speed=13.6x    frame= 9781 fps=326 q=-0.0 size=N/A time=00:06:47.94 bitrate=N/A speed=13.6x    frame= 9960 fps=327 q=-0.0 size=N/A time=00:06:55.41 bitrate=N/A speed=13.6x    frame=10139 fps=327 q=-0.0 size=N/A time=00:07:02.88 bitrate=N/A speed=13.6x    frame=10317 fps=327 q=-0.0 size=N/A time=00:07:10.30 bitrate=N/A speed=13.7x    frame=10502 fps=328 q=-0.0 size=N/A time=00:07:18.02 bitrate=N/A speed=13.7x    frame=10661 fps=328 q=-0.0 size=N/A time=00:07:24.65 bitrate=N/A speed=13.7x    frame=10843 fps=328 q=-0.0 size=N/A time=00:07:32.24 bitrate=N/A speed=13.7x    frame=11017 fps=328 q=-0.0 size=N/A time=00:07:39.50 bitrate=N/A speed=13.7x    frame=11184 fps=328 q=-0.0 size=N/A time=00:07:46.46 bitrate=N/A speed=13.7x    frame=11355 fps=328 q=-0.0 size=N/A time=00:07:53.59 bitrate=N/A speed=13.7x    frame=11544 fps=329 q=-0.0 size=N/A time=00:08:01.48 bitrate=N/A speed=13.7x    frame=11709 fps=329 q=-0.0 size=N/A time=00:08:08.36 bitrate=N/A speed=13.7x    frame=11884 fps=329 q=-0.0 size=N/A time=00:08:15.66 bitrate=N/A speed=13.7x    frame=12024 fps=328 q=-0.0 size=N/A time=00:08:21.50 bitrate=N/A speed=13.7x    frame=12203 fps=328 q=-0.0 size=N/A time=00:08:28.96 bitrate=N/A speed=13.7x    frame=12377 fps=328 q=-0.0 size=N/A time=00:08:36.22 bitrate=N/A speed=13.7x    frame=12555 fps=328 q=-0.0 size=N/A time=00:08:43.64 bitrate=N/A speed=13.7x    frame=12733 fps=329 q=-0.0 size=N/A time=00:08:51.07 bitrate=N/A speed=13.7x    frame=12896 fps=329 q=-0.0 size=N/A time=00:08:57.87 bitrate=N/A speed=13.7x    frame=13077 fps=329 q=-0.0 size=N/A time=00:09:05.41 bitrate=N/A speed=13.7x    frame=13249 fps=329 q=-0.0 size=N/A time=00:09:12.59 bitrate=N/A speed=13.7x    frame=13422 fps=329 q=-0.0 size=N/A time=00:09:19.80 bitrate=N/A speed=13.7x    frame=13589 fps=329 q=-0.0 size=N/A time=00:09:26.77 bitrate=N/A speed=13.7x    frame=13774 fps=329 q=-0.0 size=N/A time=00:09:34.49 bitrate=N/A speed=13.7x    frame=13953 fps=329 q=-0.0 size=N/A time=00:09:41.95 bitrate=N/A speed=13.7x    frame=14123 fps=329 q=-0.0 size=N/A time=00:09:49.04 bitrate=N/A speed=13.7x    frame=14269 fps=329 q=-0.0 size=N/A time=00:09:55.13 bitrate=N/A speed=13.7x    frame=14442 fps=329 q=-0.0 size=N/A time=00:10:02.35 bitrate=N/A speed=13.7x    frame=14615 fps=329 q=-0.0 size=N/A time=00:10:09.56 bitrate=N/A speed=13.7x    frame=14795 fps=329 q=-0.0 size=N/A time=00:10:17.07 bitrate=N/A speed=13.7x    frame=14975 fps=329 q=-0.0 size=N/A time=00:10:24.58 bitrate=N/A speed=13.7x    frame=15144 fps=329 q=-0.0 size=N/A time=00:10:31.63 bitrate=N/A speed=13.7x    frame=15305 fps=329 q=-0.0 size=N/A time=00:10:38.34 bitrate=N/A speed=13.7x    frame=15490 fps=330 q=-0.0 size=N/A time=00:10:46.06 bitrate=N/A speed=13.7x    frame=15603 fps=328 q=-0.0 size=N/A time=00:10:50.77 bitrate=N/A speed=13.7x    frame=15777 fps=328 q=-0.0 size=N/A time=00:10:58.03 bitrate=N/A speed=13.7x    frame=15955 fps=329 q=-0.0 size=N/A time=00:11:05.45 bitrate=N/A speed=13.7x    frame=16143 fps=329 q=-0.0 size=N/A time=00:11:13.29 bitrate=N/A speed=13.7x    frame=16315 fps=329 q=-0.0 size=N/A time=00:11:20.47 bitrate=N/A speed=13.7x    frame=16496 fps=329 q=-0.0 size=N/A time=00:11:28.02 bitrate=N/A speed=13.7x    frame=16673 fps=329 q=-0.0 size=N/A time=00:11:35.40 bitrate=N/A speed=13.7x    frame=16843 fps=329 q=-0.0 size=N/A time=00:11:42.49 bitrate=N/A speed=13.7x    frame=17024 fps=330 q=-0.0 size=N/A time=00:11:50.04 bitrate=N/A speed=13.7x    frame=17216 fps=330 q=-0.0 size=N/A time=00:11:58.05 bitrate=N/A speed=13.8x    frame=17396 fps=330 q=-0.0 size=N/A time=00:12:05.55 bitrate=N/A speed=13.8x    frame=17558 fps=330 q=-0.0 size=N/A time=00:12:12.31 bitrate=N/A speed=13.8x    frame=17735 fps=330 q=-0.0 size=N/A time=00:12:19.69 bitrate=N/A speed=13.8x    frame=17892 fps=330 q=-0.0 size=N/A time=00:12:26.24 bitrate=N/A speed=13.8x    frame=18054 fps=330 q=-0.0 size=N/A time=00:12:33.00 bitrate=N/A speed=13.8x    frame=18228 fps=330 q=-0.0 size=N/A time=00:12:40.25 bitrate=N/A speed=13.8x    frame=18402 fps=330 q=-0.0 size=N/A time=00:12:47.51 bitrate=N/A speed=13.8x    frame=18588 fps=330 q=-0.0 size=N/A time=00:12:55.27 bitrate=N/A speed=13.8x    frame=18765 fps=330 q=-0.0 size=N/A time=00:13:02.65 bitrate=N/A speed=13.8x    frame=18943 fps=330 q=-0.0 size=N/A time=00:13:10.08 bitrate=N/A speed=13.8x    frame=19125 fps=331 q=-0.0 size=N/A time=00:13:17.67 bitrate=N/A speed=13.8x    frame=19312 fps=331 q=-0.0 size=N/A time=00:13:25.47 bitrate=N/A speed=13.8x    frame=19489 fps=331 q=-0.0 size=N/A time=00:13:32.85 bitrate=N/A speed=13.8x    frame=19672 fps=331 q=-0.0 size=N/A time=00:13:40.48 bitrate=N/A speed=13.8x    frame=19856 fps=331 q=-0.0 size=N/A time=00:13:48.16 bitrate=N/A speed=13.8x    frame=20043 fps=332 q=-0.0 size=N/A time=00:13:55.96 bitrate=N/A speed=13.8x    frame=20225 fps=332 q=-0.0 size=N/A time=00:14:03.55 bitrate=N/A speed=13.8x    frame=20363 fps=331 q=-0.0 size=N/A time=00:14:09.30 bitrate=N/A speed=13.8x    frame=20542 fps=331 q=-0.0 size=N/A time=00:14:16.77 bitrate=N/A speed=13.8x    frame=20701 fps=331 q=-0.0 size=N/A time=00:14:23.40 bitrate=N/A speed=13.8x    frame=20882 fps=331 q=-0.0 size=N/A time=00:14:30.95 bitrate=N/A speed=13.8x    frame=21069 fps=332 q=-0.0 size=N/A time=00:14:38.75 bitrate=N/A speed=13.8x    frame=21245 fps=332 q=-0.0 size=N/A time=00:14:46.09 bitrate=N/A speed=13.8x    frame=21417 fps=332 q=-0.0 size=N/A time=00:14:53.26 bitrate=N/A speed=13.8x    frame=21604 fps=332 q=-0.0 size=N/A time=00:15:01.06 bitrate=N/A speed=13.8x    frame=21781 fps=332 q=-0.0 size=N/A time=00:15:08.44 bitrate=N/A speed=13.9x    frame=21959 fps=332 q=-0.0 size=N/A time=00:15:15.87 bitrate=N/A speed=13.9x    frame=22138 fps=332 q=-0.0 size=N/A time=00:15:23.33 bitrate=N/A speed=13.9x    frame=22321 fps=332 q=-0.0 size=N/A time=00:15:30.97 bitrate=N/A speed=13.9x    frame=22501 fps=333 q=-0.0 size=N/A time=00:15:38.47 bitrate=N/A speed=13.9x    frame=22664 fps=332 q=-0.0 size=N/A time=00:15:45.27 bitrate=N/A speed=13.9x    frame=22799 fps=332 q=-0.0 size=N/A time=00:15:50.90 bitrate=N/A speed=13.8x    frame=22971 fps=332 q=-0.0 size=N/A time=00:15:58.08 bitrate=N/A speed=13.8x    frame=23150 fps=332 q=-0.0 size=N/A time=00:16:05.54 bitrate=N/A speed=13.9x    frame=23339 fps=332 q=-0.0 size=N/A time=00:16:13.43 bitrate=N/A speed=13.9x    frame=23523 fps=332 q=-0.0 size=N/A time=00:16:21.10 bitrate=N/A speed=13.9x    frame=23700 fps=333 q=-0.0 size=N/A time=00:16:28.48 bitrate=N/A speed=13.9x    frame=23877 fps=333 q=-0.0 size=N/A time=00:16:35.86 bitrate=N/A speed=13.9x    frame=24068 fps=333 q=-0.0 size=N/A time=00:16:43.83 bitrate=N/A speed=13.9x    frame=24250 fps=333 q=-0.0 size=N/A time=00:16:51.42 bitrate=N/A speed=13.9x    frame=24428 fps=333 q=-0.0 size=N/A time=00:16:58.85 bitrate=N/A speed=13.9x    frame=24613 fps=333 q=-0.0 size=N/A time=00:17:06.56 bitrate=N/A speed=13.9x    frame=24789 fps=333 q=-0.0 size=N/A time=00:17:13.90 bitrate=N/A speed=13.9x    frame=24965 fps=333 q=-0.0 size=N/A time=00:17:21.24 bitrate=N/A speed=13.9x    frame=25101 fps=333 q=-0.0 size=N/A time=00:17:26.92 bitrate=N/A speed=13.9x    frame=25279 fps=333 q=-0.0 size=N/A time=00:17:34.34 bitrate=N/A speed=13.9x    frame=25457 fps=333 q=-0.0 size=N/A time=00:17:41.76 bitrate=N/A speed=13.9x    frame=25637 fps=333 q=-0.0 size=N/A time=00:17:49.27 bitrate=N/A speed=13.9x    frame=25809 fps=333 q=-0.0 size=N/A time=00:17:56.45 bitrate=N/A speed=13.9x    frame=25992 fps=333 q=-0.0 size=N/A time=00:18:04.08 bitrate=N/A speed=13.9x    frame=26167 fps=333 q=-0.0 size=N/A time=00:18:11.38 bitrate=N/A speed=13.9x    frame=26350 fps=334 q=-0.0 size=N/A time=00:18:19.01 bitrate=N/A speed=13.9x    frame=26523 fps=334 q=-0.0 size=N/A time=00:18:26.23 bitrate=N/A speed=13.9x    frame=26710 fps=334 q=-0.0 size=N/A time=00:18:34.02 bitrate=N/A speed=13.9x    frame=26893 fps=334 q=-0.0 size=N/A time=00:18:41.66 bitrate=N/A speed=13.9x    frame=27069 fps=334 q=-0.0 size=N/A time=00:18:49.00 bitrate=N/A speed=13.9x    frame=27252 fps=334 q=-0.0 size=N/A time=00:18:56.63 bitrate=N/A speed=13.9x    frame=27429 fps=334 q=-0.0 size=N/A time=00:19:04.01 bitrate=N/A speed=13.9x    frame=27556 fps=334 q=-0.0 size=N/A time=00:19:09.31 bitrate=N/A speed=13.9x    frame=27737 fps=334 q=-0.0 size=N/A time=00:19:16.86 bitrate=N/A speed=13.9x    frame=27914 fps=334 q=-0.0 size=N/A time=00:19:24.24 bitrate=N/A speed=13.9x    frame=28094 fps=334 q=-0.0 size=N/A time=00:19:31.75 bitrate=N/A speed=13.9x    frame=28278 fps=334 q=-0.0 size=N/A time=00:19:39.42 bitrate=N/A speed=13.9x    frame=28455 fps=334 q=-0.0 size=N/A time=00:19:46.81 bitrate=N/A speed=13.9x    frame=28638 fps=334 q=-0.0 size=N/A time=00:19:54.44 bitrate=N/A speed=13.9x    frame=28804 fps=334 q=-0.0 size=N/A time=00:20:01.36 bitrate=N/A speed=13.9x    frame=28980 fps=334 q=-0.0 size=N/A time=00:20:08.70 bitrate=N/A speed=13.9x    frame=29150 fps=334 q=-0.0 size=N/A time=00:20:15.79 bitrate=N/A speed=13.9x    frame=29324 fps=334 q=-0.0 size=N/A time=00:20:23.05 bitrate=N/A speed=13.9x    frame=29494 fps=334 q=-0.0 size=N/A time=00:20:30.14 bitrate=N/A speed=13.9x    frame=29668 fps=334 q=-0.0 size=N/A time=00:20:37.40 bitrate=N/A speed=13.9x    frame=29798 fps=334 q=-0.0 size=N/A time=00:20:42.82 bitrate=N/A speed=13.9x    frame=29962 fps=334 q=-0.0 size=N/A time=00:20:49.66 bitrate=N/A speed=13.9x    frame=30128 fps=333 q=-0.0 size=N/A time=00:20:56.58 bitrate=N/A speed=13.9x    frame=30308 fps=334 q=-0.0 size=N/A time=00:21:04.09 bitrate=N/A speed=13.9x    frame=30494 fps=334 q=-0.0 size=N/A time=00:21:11.85 bitrate=N/A speed=13.9x    frame=30674 fps=334 q=-0.0 size=N/A time=00:21:19.36 bitrate=N/A speed=13.9x    frame=30850 fps=334 q=-0.0 size=N/A time=00:21:26.70 bitrate=N/A speed=13.9x    frame=31034 fps=334 q=-0.0 size=N/A time=00:21:34.37 bitrate=N/A speed=13.9x    frame=31215 fps=334 q=-0.0 size=N/A time=00:21:41.92 bitrate=N/A speed=13.9x    frame=31394 fps=334 q=-0.0 size=N/A time=00:21:49.39 bitrate=N/A speed=13.9x    frame=31572 fps=334 q=-0.0 size=N/A time=00:21:56.81 bitrate=N/A speed=13.9x    frame=31749 fps=334 q=-0.0 size=N/A time=00:22:04.19 bitrate=N/A speed=13.9x    frame=31924 fps=334 q=-0.0 size=N/A time=00:22:11.49 bitrate=N/A speed=13.9x    frame=32102 fps=334 q=-0.0 size=N/A time=00:22:18.92 bitrate=N/A speed=13.9x    frame=32227 fps=334 q=-0.0 size=N/A time=00:22:24.13 bitrate=N/A speed=13.9x    frame=32406 fps=334 q=-0.0 size=N/A time=00:22:31.60 bitrate=N/A speed=13.9x    frame=32594 fps=334 q=-0.0 size=N/A time=00:22:39.44 bitrate=N/A speed=13.9x    frame=32745 fps=334 q=-0.0 size=N/A time=00:22:45.73 bitrate=N/A speed=13.9x    frame=32901 fps=334 q=-0.0 size=N/A time=00:22:52.24 bitrate=N/A speed=13.9x    frame=33063 fps=333 q=-0.0 size=N/A time=00:22:59.00 bitrate=N/A speed=13.9x    frame=33237 fps=333 q=-0.0 size=N/A time=00:23:06.25 bitrate=N/A speed=13.9x    frame=33394 fps=333 q=-0.0 size=N/A time=00:23:12.80 bitrate=N/A speed=13.9x    frame=33557 fps=333 q=-0.0 size=N/A time=00:23:19.60 bitrate=N/A speed=13.9x    frame=33711 fps=333 q=-0.0 size=N/A time=00:23:26.02 bitrate=N/A speed=13.9x    frame=33830 fps=333 q=-0.0 size=N/A time=00:23:30.99 bitrate=N/A speed=13.9x    frame=33975 fps=332 q=-0.0 size=N/A time=00:23:37.04 bitrate=N/A speed=13.9x    frame=34145 fps=332 q=-0.0 size=N/A time=00:23:44.13 bitrate=N/A speed=13.9x    frame=34276 fps=332 q=-0.0 size=N/A time=00:23:49.59 bitrate=N/A speed=13.8x    frame=34403 fps=331 q=-0.0 size=N/A time=00:23:54.89 bitrate=N/A speed=13.8x    frame=34560 fps=331 q=-0.0 size=N/A time=00:24:01.44 bitrate=N/A speed=13.8x    [Parsed_ssim_16 @ 000001d545892480] SSIM Y:0.993823 (22.092553) U:0.993993 (22.213273) V:0.993595 (21.934825) All:0.993814 (22.085630)
[out#0/null @ 000001d538788a00] video:14903KiB audio:271276KiB subtitle:0KiB other streams:0KiB global headers:0KiB muxing overhead: unknown
frame=34683 fps=331 q=-0.0 Lsize=N/A time=00:24:06.57 bitrate=N/A speed=13.8x    
